HIERARCHY
ROOT Hips
{
	OFFSET -339.306915 540.749023 89.171944
	CHANNELS 6 Xposition Yposition Zposition Zrotation Yrotation Xrotation
	JOINT Spine
	{
		OFFSET 0.000000 2.080078 8.814247
		CHANNELS 6 Xposition Yposition Zposition Zrotation Yrotation Xrotation
		JOINT Spine1
		{
			OFFSET 0.000000 0.000000 8.844139
			CHANNELS 6 Xposition Yposition Zposition Zrotation Yrotation Xrotation
			JOINT Spine2
			{
				OFFSET 0.000000 0.000000 11.682266
				CHANNELS 6 Xposition Yposition Zposition Zrotation Yrotation Xrotation
				JOINT Spine3
				{
					OFFSET 0.000000 0.000000 11.746696
					CHANNELS 6 Xposition Yposition Zposition Zrotation Yrotation Xrotation
					JOINT Neck
					{
						OFFSET 0.000000 0.000000 17.658264
						CHANNELS 6 Xposition Yposition Zposition Zrotation Yrotation Xrotation
						JOINT Neck1
						{
							OFFSET 0.000000 0.000000 5.101517
							CHANNELS 6 Xposition Yposition Zposition Zrotation Yrotation Xrotation
							JOINT Head
							{
								OFFSET 0.000000 0.000000 5.101517
								CHANNELS 6 Xposition Yposition Zposition Zrotation Yrotation Xrotation
								JOINT HeadEnd
								{
									OFFSET 0.000000 0.000000 11.655090
									CHANNELS 6 Xposition Yposition Zposition Zrotation Yrotation Xrotation
									End Site
									{
										OFFSET 0.000000 0.000000 0.100006
									}
								}
							}
						}
					}
					JOINT RightShoulder
					{
						OFFSET -2.625397 0.000000 11.175217
						CHANNELS 6 Xposition Yposition Zposition Zrotation Yrotation Xrotation
						JOINT RightArm
						{
							OFFSET 0.000000 0.000000 10.434708
							CHANNELS 6 Xposition Yposition Zposition Zrotation Yrotation Xrotation
							JOINT RightForeArm
							{
								OFFSET 0.000000 0.000000 29.628418
								CHANNELS 6 Xposition Yposition Zposition Zrotation Yrotation Xrotation
								JOINT RightHand
								{
									OFFSET 0.000000 0.000000 22.857605
									CHANNELS 6 Xposition Yposition Zposition Zrotation Yrotation Xrotation
									JOINT RightHandThumb1
									{
										OFFSET -2.867310 -2.944275 3.959564
										CHANNELS 6 Xposition Yposition Zposition Zrotation Yrotation Xrotation
										JOINT RightHandThumb2
										{
											OFFSET 0.000000 0.000000 3.350403
											CHANNELS 6 Xposition Yposition Zposition Zrotation Yrotation Xrotation
											JOINT RightHandThumb3
											{
												OFFSET 0.000000 0.000000 3.756516
												CHANNELS 6 Xposition Yposition Zposition Zrotation Yrotation Xrotation
												JOINT RightHandThumb4
												{
													OFFSET 0.000000 0.000000 3.147339
													CHANNELS 6 Xposition Yposition Zposition Zrotation Yrotation Xrotation
													End Site
													{
														OFFSET 0.000000 0.000000 0.100006
													}
												}
											}
										}
									}
									JOINT RightHandIndex1
									{
										OFFSET -0.086761 -2.345276 10.030899
										CHANNELS 6 Xposition Yposition Zposition Zrotation Yrotation Xrotation
										JOINT RightHandIndex2
										{
											OFFSET 0.000000 0.000000 4.061096
											CHANNELS 6 Xposition Yposition Zposition Zrotation Yrotation Xrotation
											JOINT RightHandIndex3
											{
												OFFSET 0.000000 0.000000 3.248871
												CHANNELS 6 Xposition Yposition Zposition Zrotation Yrotation Xrotation
												JOINT RightHandIndex4
												{
													OFFSET 0.000000 0.000000 2.639709
													CHANNELS 6 Xposition Yposition Zposition Zrotation Yrotation Xrotation
													End Site
													{
														OFFSET 0.000000 0.000000 0.100006
													}
												}
											}
										}
									}
									JOINT RightHandMiddle1
									{
										OFFSET 0.104095 -0.006775 9.502945
										CHANNELS 6 Xposition Yposition Zposition Zrotation Yrotation Xrotation
										JOINT RightHandMiddle2
										{
											OFFSET 0.000000 0.000000 4.568726
											CHANNELS 6 Xposition Yposition Zposition Zrotation Yrotation Xrotation
											JOINT RightHandMiddle3
											{
												OFFSET 0.000000 0.000000 3.654984
												CHANNELS 6 Xposition Yposition Zposition Zrotation Yrotation Xrotation
												JOINT RightHandMiddle4
												{
													OFFSET 0.000000 0.000000 2.741241
													CHANNELS 6 Xposition Yposition Zposition Zrotation Yrotation Xrotation
													End Site
													{
														OFFSET 0.000000 0.000000 0.100006
													}
												}
											}
										}
									}
									JOINT RightHandRing1
									{
										OFFSET 0.086761 2.267456 8.921707
										CHANNELS 6 Xposition Yposition Zposition Zrotation Yrotation Xrotation
										JOINT RightHandRing2
										{
											OFFSET 0.000000 0.000000 4.061096
											CHANNELS 6 Xposition Yposition Zposition Zrotation Yrotation Xrotation
											JOINT RightHandRing3
											{
												OFFSET 0.000000 0.000000 3.654984
												CHANNELS 6 Xposition Yposition Zposition Zrotation Yrotation Xrotation
												JOINT RightHandRing4
												{
													OFFSET 0.000000 0.000000 2.741241
													CHANNELS 6 Xposition Yposition Zposition Zrotation Yrotation Xrotation
													End Site
													{
														OFFSET 0.000000 0.000000 0.100006
													}
												}
											}
										}
									}
									JOINT RightHandPinky1
									{
										OFFSET -0.173492 4.467224 7.976990
										CHANNELS 6 Xposition Yposition Zposition Zrotation Yrotation Xrotation
										JOINT RightHandPinky2
										{
											OFFSET 0.000000 0.000000 3.350403
											CHANNELS 6 Xposition Yposition Zposition Zrotation Yrotation Xrotation
											JOINT RightHandPinky3
											{
												OFFSET 0.000000 0.000000 2.842758
												CHANNELS 6 Xposition Yposition Zposition Zrotation Yrotation Xrotation
												JOINT RightHandPinky4
												{
													OFFSET 0.000000 0.000000 2.639709
													CHANNELS 6 Xposition Yposition Zposition Zrotation Yrotation Xrotation
													End Site
													{
														OFFSET 0.000000 0.000000 0.100006
													}
												}
											}
										}
									}
									JOINT RightForeArmEnd
									{
										OFFSET 0.000000 0.000000 0.000000
										CHANNELS 6 Xposition Yposition Zposition Zrotation Yrotation Xrotation
										End Site
										{
											OFFSET 0.000000 0.000000 0.100006
										}
									}
								}
								JOINT RightArmEnd
								{
									OFFSET 0.000000 0.000000 0.000000
									CHANNELS 6 Xposition Yposition Zposition Zrotation Yrotation Xrotation
									End Site
									{
										OFFSET 0.000000 0.000000 0.100006
									}
								}
							}
						}
					}
					JOINT LeftShoulder
					{
						OFFSET 2.625397 0.000000 11.175217
						CHANNELS 6 Xposition Yposition Zposition Zrotation Yrotation Xrotation
						JOINT LeftArm
						{
							OFFSET 0.000000 0.000000 10.813629
							CHANNELS 6 Xposition Yposition Zposition Zrotation Yrotation Xrotation
							JOINT LeftForeArm
							{
								OFFSET 0.000000 0.000000 28.724777
								CHANNELS 6 Xposition Yposition Zposition Zrotation Yrotation Xrotation
								JOINT LeftHand
								{
									OFFSET 0.644379 0.328857 25.716171
									CHANNELS 6 Xposition Yposition Zposition Zrotation Yrotation Xrotation
									JOINT LeftHandThumb1
									{
										OFFSET 2.867310 -2.944275 3.959564
										CHANNELS 6 Xposition Yposition Zposition Zrotation Yrotation Xrotation
										JOINT LeftHandThumb2
										{
											OFFSET 0.000000 0.000000 3.350403
											CHANNELS 6 Xposition Yposition Zposition Zrotation Yrotation Xrotation
											JOINT LeftHandThumb3
											{
												OFFSET 0.000000 0.000000 3.756516
												CHANNELS 6 Xposition Yposition Zposition Zrotation Yrotation Xrotation
												JOINT LeftHandThumb4
												{
													OFFSET 0.000000 0.000000 3.100006
													CHANNELS 6 Xposition Yposition Zposition Zrotation Yrotation Xrotation
													End Site
													{
														OFFSET 0.000000 0.000000 0.100006
													}
												}
											}
										}
									}
									JOINT LeftHandIndex1
									{
										OFFSET 0.086761 -2.345276 10.030899
										CHANNELS 6 Xposition Yposition Zposition Zrotation Yrotation Xrotation
										JOINT LeftHandIndex2
										{
											OFFSET 0.000000 0.000000 4.061096
											CHANNELS 6 Xposition Yposition Zposition Zrotation Yrotation Xrotation
											JOINT LeftHandIndex3
											{
												OFFSET 0.000000 0.000000 3.248871
												CHANNELS 6 Xposition Yposition Zposition Zrotation Yrotation Xrotation
												JOINT LeftHandIndex4
												{
													OFFSET 0.000000 0.000000 2.639709
													CHANNELS 6 Xposition Yposition Zposition Zrotation Yrotation Xrotation
													End Site
													{
														OFFSET 0.000000 0.000000 0.100006
													}
												}
											}
										}
									}
									JOINT LeftHandMiddle1
									{
										OFFSET -0.104095 -0.006775 9.502945
										CHANNELS 6 Xposition Yposition Zposition Zrotation Yrotation Xrotation
										JOINT LeftHandMiddle2
										{
											OFFSET 0.000000 0.000000 4.568726
											CHANNELS 6 Xposition Yposition Zposition Zrotation Yrotation Xrotation
											JOINT LeftHandMiddle3
											{
												OFFSET 0.000000 0.000000 3.654984
												CHANNELS 6 Xposition Yposition Zposition Zrotation Yrotation Xrotation
												JOINT LeftHandMiddle4
												{
													OFFSET 0.000000 0.000000 2.741241
													CHANNELS 6 Xposition Yposition Zposition Zrotation Yrotation Xrotation
													End Site
													{
														OFFSET 0.000000 0.000000 0.100006
													}
												}
											}
										}
									}
									JOINT LeftHandRing1
									{
										OFFSET -0.086761 2.267456 8.921707
										CHANNELS 6 Xposition Yposition Zposition Zrotation Yrotation Xrotation
										JOINT LeftHandRing2
										{
											OFFSET 0.000000 0.000000 4.061096
											CHANNELS 6 Xposition Yposition Zposition Zrotation Yrotation Xrotation
											JOINT LeftHandRing3
											{
												OFFSET 0.000000 0.000000 3.654984
												CHANNELS 6 Xposition Yposition Zposition Zrotation Yrotation Xrotation
												JOINT LeftHandRing4
												{
													OFFSET 0.000000 0.000000 2.741241
													CHANNELS 6 Xposition Yposition Zposition Zrotation Yrotation Xrotation
													End Site
													{
														OFFSET 0.000000 0.000000 0.100006
													}
												}
											}
										}
									}
									JOINT LeftHandPinky1
									{
										OFFSET 0.173492 4.467224 7.976990
										CHANNELS 6 Xposition Yposition Zposition Zrotation Yrotation Xrotation
										JOINT LeftHandPinky2
										{
											OFFSET 0.000000 0.000000 3.350403
											CHANNELS 6 Xposition Yposition Zposition Zrotation Yrotation Xrotation
											JOINT LeftHandPinky3
											{
												OFFSET 0.000000 0.000000 2.842758
												CHANNELS 6 Xposition Yposition Zposition Zrotation Yrotation Xrotation
												JOINT LeftHandPinky4
												{
													OFFSET 0.000000 0.000000 2.639709
													CHANNELS 6 Xposition Yposition Zposition Zrotation Yrotation Xrotation
													End Site
													{
														OFFSET 0.000000 0.000000 0.100006
													}
												}
											}
										}
									}
									JOINT LeftForeArmEnd
									{
										OFFSET 0.000000 0.000000 0.000000
										CHANNELS 6 Xposition Yposition Zposition Zrotation Yrotation Xrotation
										End Site
										{
											OFFSET 0.000000 0.000000 0.100006
										}
									}
								}
								JOINT LeftArmEnd
								{
									OFFSET 0.000000 0.000000 0.000000
									CHANNELS 6 Xposition Yposition Zposition Zrotation Yrotation Xrotation
									End Site
									{
										OFFSET 0.000000 0.000000 0.100006
									}
								}
							}
						}
					}
				}
			}
		}
	}
	JOINT RightUpLeg
	{
		OFFSET -11.289948 0.000000 0.000000
		CHANNELS 6 Xposition Yposition Zposition Zrotation Yrotation Xrotation
		JOINT RightLeg
		{
			OFFSET 0.000000 0.000000 -38.200329
			CHANNELS 6 Xposition Yposition Zposition Zrotation Yrotation Xrotation
			JOINT RightFoot
			{
				OFFSET 0.000000 0.000000 -39.900856
				CHANNELS 6 Xposition Yposition Zposition Zrotation Yrotation Xrotation
				JOINT RightToeBase
				{
					OFFSET 0.000000 -15.261658 0.000001
					CHANNELS 6 Xposition Yposition Zposition Zrotation Yrotation Xrotation
					JOINT RightToeBaseEnd
					{
						OFFSET 0.000000 -7.370728 0.000001
						CHANNELS 6 Xposition Yposition Zposition Zrotation Yrotation Xrotation
						End Site
						{
							OFFSET 0.000000 0.000000 0.100000
						}
					}
				}
				JOINT RightLegEnd
				{
					OFFSET 0.000000 0.000000 0.000000
					CHANNELS 6 Xposition Yposition Zposition Zrotation Yrotation Xrotation
					End Site
					{
						OFFSET 0.000000 0.000000 0.100000
					}
				}
			}
			JOINT RightUpLegEnd
			{
				OFFSET 0.000000 0.000000 0.000000
				CHANNELS 6 Xposition Yposition Zposition Zrotation Yrotation Xrotation
				End Site
				{
					OFFSET 0.000000 0.000000 0.099998
				}
			}
		}
	}
	JOINT LeftUpLeg
	{
		OFFSET 11.315674 0.000000 0.000000
		CHANNELS 6 Xposition Yposition Zposition Zrotation Yrotation Xrotation
		JOINT LeftLeg
		{
			OFFSET 0.000000 0.000000 -38.200329
			CHANNELS 6 Xposition Yposition Zposition Zrotation Yrotation Xrotation
			JOINT LeftFoot
			{
				OFFSET 0.000000 0.000000 -39.900856
				CHANNELS 6 Xposition Yposition Zposition Zrotation Yrotation Xrotation
				JOINT LeftToeBase
				{
					OFFSET 0.000000 -15.261658 0.000001
					CHANNELS 6 Xposition Yposition Zposition Zrotation Yrotation Xrotation
					JOINT LeftToeBaseEnd
					{
						OFFSET 0.000000 -7.539978 0.000001
						CHANNELS 6 Xposition Yposition Zposition Zrotation Yrotation Xrotation
						End Site
						{
							OFFSET 0.000000 0.000000 0.100000
						}
					}
				}
				JOINT LeftLegEnd
				{
					OFFSET 0.000000 0.000000 0.000000
					CHANNELS 6 Xposition Yposition Zposition Zrotation Yrotation Xrotation
					End Site
					{
						OFFSET 0.000000 0.000000 0.100000
					}
				}
			}
			JOINT LeftUpLegEnd
			{
				OFFSET 0.000000 0.000000 0.000000
				CHANNELS 6 Xposition Yposition Zposition Zrotation Yrotation Xrotation
				End Site
				{
					OFFSET 0.000000 0.000000 0.099998
				}
			}
		}
	}
}
MOTION
Frames: 2
Frame Time: 0.016667
18.813049 -72.612244 82.113762 -22.251759 -5.829306 -8.468091 -0.000008 2.080064 8.814249 1.141156 4.110997 16.762922 0.000005 0.000072 8.844156 1.287680 1.557280 9.258210 -0.000003 0.000000 11.682261 5.408443 2.765543 12.899107 0.000023 0.000008 11.746700 1.982877 5.053991 11.720271 -0.000005 -0.000026 17.658310 0.685956 6.133509 -4.831733 0.000009 -0.000021 5.101526 -2.816717 1.052804 -9.119959 0.000007 0.000030 5.101558 1.194526 -1.460563 -17.743597 0.000004 -0.000000 11.655093 0.000000 0.000001 -0.000000 -2.625389 0.000011 11.175231 11.453858 -78.576190 0.370331 -0.000035 -0.000023 10.434715 -92.240899 -40.055559 62.878899 -0.000008 -0.000044 29.628410 16.665247 1.296954 91.294883 -0.000059 -0.000076 22.857689 -31.147780 -17.310662 -37.638652 -2.867304 -2.944305 3.959549 32.085234 -24.853532 40.766916 0.000008 0.000031 3.350418 -29.541914 10.944169 -50.109717 0.000000 0.000023 3.756500 -19.561698 10.439651 -34.157004 -0.000006 -0.000006 3.147360 0.000001 -0.000001 -0.000001 -0.086754 -2.345307 10.030918 -183.786976 -110.008427 169.237512 0.000021 -0.000023 4.061081 4.005400 -50.011495 -9.643191 -0.000002 0.000029 3.248890 4.505525 -50.011492 -9.643378 -0.000004 -0.000002 2.639710 0.000000 0.000000 -0.000000 0.104095 -0.006765 9.502958 -18.440273 -70.517557 9.026172 0.000005 -0.000012 4.568705 1.206151 -50.461564 -3.627681 0.000003 -0.000021 3.654963 1.707495 -50.461557 -3.639309 0.000000 -0.000001 2.741271 0.000000 -0.000000 -0.000000 0.086770 2.267439 8.921713 -68.259954 -74.410567 69.899391 0.000006 -0.000005 4.061064 -2.287505 -58.885479 5.819158 -0.000004 0.000025 3.654995 -3.286910 -58.885417 5.818773 0.000013 0.000009 2.741263 -0.000001 0.000003 -0.000001 -0.173481 4.467236 7.976981 -84.404206 -67.191023 96.890509 0.000008 0.000013 3.350426 -10.470280 -61.373956 20.862948 -0.000038 0.000011 2.842751 -12.470285 -61.373976 20.862946 0.000010 -0.000073 2.639717 0.000001 0.000000 -0.000001 0.000005 -0.000013 -0.000014 0.000002 0.000000 0.000001 -0.000039 -0.000005 0.000045 0.000001 0.000000 -0.000002 2.625435 -0.000023 11.175239 -10.085726 84.013813 -0.149568 0.000031 0.000000 10.813644 69.781850 42.555272 36.079959 -0.000008 0.000015 28.724754 -20.438808 -2.090618 112.575834 0.644441 0.328865 25.716225 68.434500 49.990769 -13.283561 2.867311 -2.944260 3.959534 -31.852618 23.703197 42.324623 0.000000 0.000008 3.350395 27.020496 -11.066201 -46.082863 -0.000008 0.000000 3.756527 17.852771 -10.075329 -31.395002 0.000005 0.000009 3.100008 -0.000000 -0.000001 0.000001 0.086708 -2.345276 10.030907 42.762804 63.484867 28.450566 0.000008 -0.000010 4.061085 3.354048 47.350898 8.776137 -0.000008 -0.000011 3.248859 3.854048 47.350850 8.776128 0.000008 0.000007 2.639731 -0.000001 -0.000001 -0.000000 -0.104126 -0.006769 9.502968 32.651047 65.697629 25.500784 0.000011 -0.000005 4.568724 1.010939 48.337768 3.370270 -0.000002 -0.000016 3.654982 1.511620 48.337782 3.371224 0.000013 0.000015 2.741251 -0.000002 -0.000001 0.000000 -0.086777 2.267450 8.921696 44.216606 82.128387 52.093508 0.000019 0.000008 4.061087 -2.203535 58.477539 -5.717598 -0.000004 0.000024 3.655005 -3.205421 58.477477 -5.720251 -0.000003 -0.000006 2.741263 0.000001 0.000002 -0.000000 0.173462 4.467222 7.976997 -156.338973 84.274371 -137.529943 0.000015 0.000025 3.350433 -10.680144 61.635053 -21.101743 0.000023 0.000004 2.842766 -12.680086 61.635040 -21.101704 -0.000013 -0.000000 2.639745 0.000000 0.000001 0.000001 0.000002 -0.000002 0.000013 0.000000 -0.000000 -0.000000 -0.000024 -0.000014 -0.000007 0.000001 -0.000003 0.000004 -11.289940 0.000019 0.000014 22.073933 2.029777 -17.595595 -0.000005 0.000018 -38.200287 -0.243297 0.302674 50.688975 0.000007 -0.000027 -39.900856 -5.220746 5.587474 -1.250018 -0.000008 -15.261659 -0.000006 0.087954 0.545836 -17.071243 0.000003 -7.370667 -0.000001 0.000000 0.000000 0.000000 0.000002 0.000064 -0.000005 -0.000001 0.000000 0.000001 -0.000001 -0.000001 -0.000008 0.000000 0.000000 0.000003 11.315678 -0.000031 0.000008 14.897729 7.678061 -10.270730 -0.000004 0.000099 -38.200279 0.616518 -0.543738 41.426771 -0.000015 -0.000013 -39.900852 13.506877 -5.238625 -0.333034 0.000006 -15.261600 -0.000015 -1.216162 0.626216 -14.053801 -0.000000 -7.539917 0.000000 0.000000 -0.000000 0.000001 -0.000000 -0.000001 0.000000 0.000000 -0.000000 0.000001 -0.000053 0.000063 -0.000001 -0.000000 -0.000000 -0.000000 
18.712311 -72.558960 82.004181 -21.330254 -5.628843 -8.526821 0.000013 2.080086 8.814249 1.045230 4.121586 16.834787 0.000004 -0.000007 8.844130 1.216265 1.538037 9.241796 0.000002 0.000000 11.682268 4.847912 2.550099 12.818895 -0.000014 0.000010 11.746700 1.707510 4.651965 11.684792 0.000000 -0.000027 17.658264 0.568317 5.949695 -4.780297 0.000002 -0.000021 5.101553 -2.724927 1.108995 -9.012027 0.000012 -0.000024 5.101524 1.170396 -1.362674 -17.720415 -0.000007 0.000003 11.655075 -0.000000 0.000000 0.000000 -2.625404 0.000045 11.175241 11.150616 -78.510292 0.373000 -0.000028 0.000023 10.434711 -91.861878 -40.369423 62.535190 0.000042 -0.000031 29.628397 16.754509 1.326183 91.926082 0.000002 -0.000031 22.857635 -32.521287 -18.297718 -37.614559 -2.867290 -2.944244 3.959579 32.085237 -24.853537 40.766916 0.000008 0.000092 3.350433 -29.541869 10.943655 -50.109454 0.000000 -0.000008 3.756531 -19.561689 10.439667 -34.156980 0.000032 -0.000013 3.147321 0.000000 -0.000001 -0.000001 -0.086769 -2.345297 10.030914 -183.753822 -110.072303 169.262620 -0.000032 0.000001 4.061073 3.994458 -49.962263 -9.628906 -0.000019 -0.000008 3.248856 4.494461 -49.962181 -9.628889 0.000009 0.000003 2.639709 -0.000000 -0.000000 0.000000 0.104095 -0.006746 9.502962 -18.419516 -70.498433 9.009002 -0.000020 -0.000009 4.568720 1.214303 -50.447166 -3.638238 -0.000003 0.000019 3.654978 1.714284 -50.447180 -3.646613 -0.000002 -0.000000 2.741242 -0.000000 -0.000000 0.000000 0.086752 2.267468 8.921709 -68.802647 -74.467818 70.389853 -0.000019 -0.000007 4.061092 -2.305830 -58.992139 5.840524 -0.000011 0.000019 3.654993 -3.305872 -58.992187 5.840555 0.000015 0.000003 2.741239 0.000000 0.000002 0.000000 -0.173500 4.467251 7.977015 -85.232619 -67.217353 97.619441 -0.000008 -0.000029 3.350403 -10.628076 -61.570891 21.042556 -0.000023 -0.000011 2.842751 -12.627964 -61.570570 21.042384 -0.000001 -0.000012 2.639709 0.000001 -0.000001 0.000000 0.000007 0.000007 -0.000011 -0.000001 0.000000 -0.000001 -0.000005 -0.000010 0.000010 0.000002 -0.000001 -0.000000 2.625381 0.000023 11.175240 -10.577447 83.581694 -0.138566 0.000015 0.000011 10.813622 70.713071 42.118157 36.646625 0.000019 0.000046 28.724747 -20.424713 -2.074091 111.935538 0.644383 0.328865 25.716156 67.098733 49.684674 -13.623900 2.867296 -2.944244 3.959549 -31.852611 23.703181 42.324623 0.000015 0.000015 3.350414 27.020495 -11.066214 -46.082836 -0.000015 0.000000 3.756504 17.852767 -10.075315 -31.395016 0.000008 -0.000005 3.100002 0.000001 0.000001 -0.000001 0.086754 -2.345287 10.030914 42.507187 63.372920 27.999281 0.000002 -0.000001 4.061123 3.324491 47.220663 8.735896 0.000023 -0.000003 3.248898 3.824470 47.220663 8.735890 -0.000016 0.000013 2.639724 -0.000002 -0.000001 -0.000001 -0.104088 -0.006784 9.502945 32.411812 65.552358 25.106319 0.000020 -0.000007 4.568720 1.004188 48.207940 3.362491 -0.000006 -0.000013 3.654984 1.505002 48.207923 3.362333 -0.000012 -0.000021 2.741256 0.000004 -0.000002 -0.000002 -0.086754 2.267443 8.921690 43.356760 82.005355 51.068115 -0.000021 -0.000011 4.061113 -2.184573 58.368386 -5.698601 0.000010 -0.000002 3.654989 -3.185746 58.368317 -5.697777 0.000011 0.000012 2.741257 -0.000003 0.000001 0.000001 0.173496 4.467242 7.976990 -155.394863 84.434484 -136.854301 -0.000023 0.000034 3.350403 -10.616008 61.555871 -21.028833 0.000004 -0.000004 2.842735 -12.616050 61.555885 -21.028865 0.000001 -0.000003 2.639711 0.000000 -0.000001 0.000001 0.000022 -0.000016 0.000008 0.000003 -0.000000 -0.000001 0.000004 -0.000007 -0.000003 -0.000001 0.000002 -0.000000 -11.289926 0.000040 0.000005 21.420423 1.800463 -17.677334 -0.000008 0.000025 -38.200275 -0.242360 0.304449 50.932113 0.000018 0.000041 -39.900864 -5.572280 5.565265 -1.439959 0.000013 -15.261655 0.000004 0.106195 0.528770 -17.004613 0.000000 -7.370664 -0.000000 -0.000000 0.000000 0.000001 -0.000004 0.000062 -0.000002 -0.000000 -0.000000 0.000001 0.000000 0.000001 -0.000013 0.000000 0.000000 0.000000 11.315681 0.000004 0.000000 14.028960 7.573469 -10.809096 -0.000023 0.000079 -38.200268 0.622204 -0.561778 42.076045 0.000024 -0.000002 -39.900852 13.425478 -5.190116 -0.482881 -0.000003 -15.261619 -0.000003 -1.216690 0.603982 -13.976407 -0.000002 -7.539979 -0.000000 0.000000 -0.000000 0.000000 0.000002 0.000002 0.000005 -0.000000 -0.000001 0.000002 -0.000020 -0.000000 -0.000005 0.000000 -0.000000 -0.000000 
